<svg width="32" height="32" viewBox="0 0 32 32" fill="none" xmlns="http://www.w3.org/2000/svg">
<rect width="32" height="32" rx="16" fill="#FF8652"/>
<ellipse cx="11.0469" cy="12.2061" rx="1.58429" ry="1.79289" transform="rotate(20.9772 11.0469 12.2061)" fill="white"/>
<ellipse cx="16.0916" cy="13.8115" rx="1.58429" ry="1.79289" transform="rotate(20.9772 16.0916 13.8115)" fill="white"/>
<path d="M17.3668 4.35254C22.3289 4.35254 26.2491 8.82642 25.5543 13.752L25.4723 14.2295L25.3444 14.8643C25.1021 16.0679 24.6688 17.1918 24.0817 18.2061C23.4557 19.2876 23.4282 20.5314 24.066 21.3291L25.4723 23.0869C25.5733 23.2132 25.7331 23.4199 25.8346 23.6865C26.222 24.7045 25.8386 25.8926 24.8658 26.4639C22.8907 27.6232 20.7832 27.5593 19.0084 27.0195C17.3654 26.5198 15.9454 25.596 15.0494 24.75V25.1611C15.0494 26.5044 13.9749 27.6161 12.6217 27.6162C10.3566 27.6162 8.37375 26.3601 6.98694 24.4521C5.59998 22.5438 4.76819 19.9398 4.76819 17.0801V16.5137C4.76819 16.4413 4.77066 16.3714 4.77307 16.3057C4.77137 16.2519 4.7682 16.1792 4.76819 16.1094C4.76819 9.61664 10.0794 4.35254 16.4733 4.35254H17.3668Z" fill="white" stroke="#1C1E22" stroke-width="1.6"/>
<ellipse cx="12.6516" cy="11.4043" rx="1.58429" ry="1.79289" transform="rotate(20.9772 12.6516 11.4043)" fill="#1C1E22"/>
<ellipse cx="17.6962" cy="13.0098" rx="1.58429" ry="1.79289" transform="rotate(20.9772 17.6962 13.0098)" fill="#1C1E22"/>
</svg>
